<mxfile host="app.diagrams.net" agent="Mozilla/5.0 (Windows NT 10.0; Win64; x64) AppleWebKit/537.36 (KHTML, like Gecko) Chrome/122.0.0.0 Safari/537.36" version="25.0.3">
  <diagram id="d7x9QkdLYVESTeXDn6s2" name="Strona-1">
    <mxGraphModel dx="1451" dy="853" grid="1" gridSize="10" guides="1" tooltips="1" connect="1" arrows="1" fold="1" page="1" pageScale="1" pageWidth="1200" pageHeight="1600" math="0" shadow="0">
      <root>
        <mxCell id="0" />
        <mxCell id="1" parent="0" />
        <mxCell id="qUHiKCZmazpI1G1EhrRY-134" value="" style="swimlane;startSize=0;strokeColor=default;strokeWidth=1;" parent="1" vertex="1">
          <mxGeometry width="1200" height="840" as="geometry">
            <mxRectangle width="50" height="40" as="alternateBounds" />
          </mxGeometry>
        </mxCell>
        <mxCell id="HZxmBzxSfUTEYyeFS2q9-19" style="edgeStyle=orthogonalEdgeStyle;rounded=0;orthogonalLoop=1;jettySize=auto;html=1;entryX=0.5;entryY=0;entryDx=0;entryDy=0;" edge="1" parent="qUHiKCZmazpI1G1EhrRY-134" source="qUHiKCZmazpI1G1EhrRY-128" target="HZxmBzxSfUTEYyeFS2q9-13">
          <mxGeometry relative="1" as="geometry">
            <Array as="points">
              <mxPoint x="600" y="260" />
              <mxPoint x="250" y="260" />
            </Array>
          </mxGeometry>
        </mxCell>
        <mxCell id="HZxmBzxSfUTEYyeFS2q9-20" style="edgeStyle=orthogonalEdgeStyle;rounded=0;orthogonalLoop=1;jettySize=auto;html=1;entryX=0.5;entryY=0;entryDx=0;entryDy=0;" edge="1" parent="qUHiKCZmazpI1G1EhrRY-134" source="qUHiKCZmazpI1G1EhrRY-128" target="HZxmBzxSfUTEYyeFS2q9-11">
          <mxGeometry relative="1" as="geometry">
            <Array as="points">
              <mxPoint x="600" y="260" />
              <mxPoint x="390" y="260" />
            </Array>
          </mxGeometry>
        </mxCell>
        <mxCell id="HZxmBzxSfUTEYyeFS2q9-21" style="edgeStyle=orthogonalEdgeStyle;rounded=0;orthogonalLoop=1;jettySize=auto;html=1;exitX=0.5;exitY=1;exitDx=0;exitDy=0;entryX=0.5;entryY=0;entryDx=0;entryDy=0;" edge="1" parent="qUHiKCZmazpI1G1EhrRY-134" source="qUHiKCZmazpI1G1EhrRY-128" target="HZxmBzxSfUTEYyeFS2q9-10">
          <mxGeometry relative="1" as="geometry">
            <Array as="points">
              <mxPoint x="600" y="260" />
              <mxPoint x="530" y="260" />
            </Array>
          </mxGeometry>
        </mxCell>
        <mxCell id="HZxmBzxSfUTEYyeFS2q9-22" style="edgeStyle=orthogonalEdgeStyle;rounded=0;orthogonalLoop=1;jettySize=auto;html=1;entryX=0.5;entryY=0;entryDx=0;entryDy=0;" edge="1" parent="qUHiKCZmazpI1G1EhrRY-134" source="qUHiKCZmazpI1G1EhrRY-128" target="HZxmBzxSfUTEYyeFS2q9-9">
          <mxGeometry relative="1" as="geometry">
            <Array as="points">
              <mxPoint x="600" y="260" />
              <mxPoint x="670" y="260" />
            </Array>
          </mxGeometry>
        </mxCell>
        <mxCell id="HZxmBzxSfUTEYyeFS2q9-24" value="" style="edgeStyle=orthogonalEdgeStyle;rounded=0;orthogonalLoop=1;jettySize=auto;html=1;" edge="1" parent="qUHiKCZmazpI1G1EhrRY-134" source="qUHiKCZmazpI1G1EhrRY-128" target="HZxmBzxSfUTEYyeFS2q9-10">
          <mxGeometry relative="1" as="geometry" />
        </mxCell>
        <mxCell id="HZxmBzxSfUTEYyeFS2q9-25" style="edgeStyle=orthogonalEdgeStyle;rounded=0;orthogonalLoop=1;jettySize=auto;html=1;entryX=0.5;entryY=0;entryDx=0;entryDy=0;" edge="1" parent="qUHiKCZmazpI1G1EhrRY-134" source="qUHiKCZmazpI1G1EhrRY-128" target="HZxmBzxSfUTEYyeFS2q9-12">
          <mxGeometry relative="1" as="geometry">
            <Array as="points">
              <mxPoint x="600" y="260" />
              <mxPoint x="810" y="260" />
            </Array>
          </mxGeometry>
        </mxCell>
        <mxCell id="HZxmBzxSfUTEYyeFS2q9-26" value="creates" style="edgeStyle=orthogonalEdgeStyle;rounded=0;orthogonalLoop=1;jettySize=auto;html=1;entryX=0.5;entryY=0;entryDx=0;entryDy=0;" edge="1" parent="qUHiKCZmazpI1G1EhrRY-134" source="qUHiKCZmazpI1G1EhrRY-128" target="HZxmBzxSfUTEYyeFS2q9-1">
          <mxGeometry x="-0.907" relative="1" as="geometry">
            <Array as="points">
              <mxPoint x="600" y="260" />
              <mxPoint x="950" y="260" />
            </Array>
            <mxPoint as="offset" />
          </mxGeometry>
        </mxCell>
        <mxCell id="qUHiKCZmazpI1G1EhrRY-128" value="Interpreter" style="rounded=0;whiteSpace=wrap;html=1;" parent="qUHiKCZmazpI1G1EhrRY-134" vertex="1">
          <mxGeometry x="540" y="160" width="120" height="60" as="geometry" />
        </mxCell>
        <mxCell id="qUHiKCZmazpI1G1EhrRY-152" value="Created with: app.diagrams.net" style="text;html=1;strokeColor=none;fillColor=none;align=center;verticalAlign=middle;whiteSpace=wrap;rounded=0;strokeWidth=2;fontStyle=1" parent="qUHiKCZmazpI1G1EhrRY-134" vertex="1">
          <mxGeometry x="1010" width="190" height="30" as="geometry" />
        </mxCell>
        <mxCell id="I7plZfuhkyHUxym0sDsi-2" value="&lt;font style=&quot;font-size: 28px;&quot;&gt;&lt;b style=&quot;&quot;&gt;Befunge93Interpreter -&amp;nbsp;&lt;/b&gt;&lt;b&gt;program diagram&lt;/b&gt;&lt;br&gt;&lt;/font&gt;" style="text;html=1;strokeColor=none;fillColor=none;align=center;verticalAlign=middle;whiteSpace=wrap;rounded=0;fontSize=24;" parent="qUHiKCZmazpI1G1EhrRY-134" vertex="1">
          <mxGeometry x="300.08000000000004" y="60" width="600" height="50" as="geometry" />
        </mxCell>
        <mxCell id="HZxmBzxSfUTEYyeFS2q9-27" value="creates" style="edgeStyle=orthogonalEdgeStyle;rounded=0;orthogonalLoop=1;jettySize=auto;html=1;entryX=0.5;entryY=0;entryDx=0;entryDy=0;" edge="1" parent="qUHiKCZmazpI1G1EhrRY-134" source="HZxmBzxSfUTEYyeFS2q9-1" target="HZxmBzxSfUTEYyeFS2q9-2">
          <mxGeometry relative="1" as="geometry" />
        </mxCell>
        <mxCell id="HZxmBzxSfUTEYyeFS2q9-32" value="" style="edgeStyle=orthogonalEdgeStyle;rounded=0;orthogonalLoop=1;jettySize=auto;html=1;" edge="1" parent="qUHiKCZmazpI1G1EhrRY-134" source="HZxmBzxSfUTEYyeFS2q9-1" target="HZxmBzxSfUTEYyeFS2q9-3">
          <mxGeometry relative="1" as="geometry">
            <Array as="points">
              <mxPoint x="1030" y="330" />
              <mxPoint x="1030" y="450" />
            </Array>
          </mxGeometry>
        </mxCell>
        <mxCell id="HZxmBzxSfUTEYyeFS2q9-33" style="edgeStyle=orthogonalEdgeStyle;rounded=0;orthogonalLoop=1;jettySize=auto;html=1;entryX=0;entryY=0.5;entryDx=0;entryDy=0;" edge="1" parent="qUHiKCZmazpI1G1EhrRY-134" source="HZxmBzxSfUTEYyeFS2q9-1" target="HZxmBzxSfUTEYyeFS2q9-5">
          <mxGeometry relative="1" as="geometry" />
        </mxCell>
        <mxCell id="HZxmBzxSfUTEYyeFS2q9-34" style="edgeStyle=orthogonalEdgeStyle;rounded=0;orthogonalLoop=1;jettySize=auto;html=1;entryX=0;entryY=0.5;entryDx=0;entryDy=0;" edge="1" parent="qUHiKCZmazpI1G1EhrRY-134" source="HZxmBzxSfUTEYyeFS2q9-1" target="HZxmBzxSfUTEYyeFS2q9-6">
          <mxGeometry relative="1" as="geometry" />
        </mxCell>
        <mxCell id="HZxmBzxSfUTEYyeFS2q9-35" style="edgeStyle=orthogonalEdgeStyle;rounded=0;orthogonalLoop=1;jettySize=auto;html=1;entryX=0;entryY=0.5;entryDx=0;entryDy=0;" edge="1" parent="qUHiKCZmazpI1G1EhrRY-134" source="HZxmBzxSfUTEYyeFS2q9-1" target="HZxmBzxSfUTEYyeFS2q9-4">
          <mxGeometry relative="1" as="geometry" />
        </mxCell>
        <mxCell id="HZxmBzxSfUTEYyeFS2q9-36" value="uses" style="edgeStyle=orthogonalEdgeStyle;rounded=0;orthogonalLoop=1;jettySize=auto;html=1;entryX=0;entryY=0.5;entryDx=0;entryDy=0;" edge="1" parent="qUHiKCZmazpI1G1EhrRY-134" source="HZxmBzxSfUTEYyeFS2q9-1" target="HZxmBzxSfUTEYyeFS2q9-7">
          <mxGeometry x="-0.6667" relative="1" as="geometry">
            <mxPoint as="offset" />
          </mxGeometry>
        </mxCell>
        <mxCell id="HZxmBzxSfUTEYyeFS2q9-1" value="NyanCatMenu" style="rounded=0;whiteSpace=wrap;html=1;" vertex="1" parent="qUHiKCZmazpI1G1EhrRY-134">
          <mxGeometry x="890" y="300" width="120" height="60" as="geometry" />
        </mxCell>
        <mxCell id="HZxmBzxSfUTEYyeFS2q9-2" value="NyanCat" style="rounded=0;whiteSpace=wrap;html=1;" vertex="1" parent="qUHiKCZmazpI1G1EhrRY-134">
          <mxGeometry x="890" y="420" width="120" height="60" as="geometry" />
        </mxCell>
        <mxCell id="HZxmBzxSfUTEYyeFS2q9-3" value="nyancat_default" style="rounded=1;whiteSpace=wrap;html=1;" vertex="1" parent="qUHiKCZmazpI1G1EhrRY-134">
          <mxGeometry x="1050" y="420" width="120" height="60" as="geometry" />
        </mxCell>
        <mxCell id="HZxmBzxSfUTEYyeFS2q9-4" value="nyancat_christmas" style="rounded=1;whiteSpace=wrap;html=1;" vertex="1" parent="qUHiKCZmazpI1G1EhrRY-134">
          <mxGeometry x="1050" y="660" width="120" height="60" as="geometry" />
        </mxCell>
        <mxCell id="HZxmBzxSfUTEYyeFS2q9-5" value="nyancat_gameboy" style="rounded=1;whiteSpace=wrap;html=1;" vertex="1" parent="qUHiKCZmazpI1G1EhrRY-134">
          <mxGeometry x="1050" y="500" width="120" height="60" as="geometry" />
        </mxCell>
        <mxCell id="HZxmBzxSfUTEYyeFS2q9-6" value="nyancat_rasta" style="rounded=1;whiteSpace=wrap;html=1;" vertex="1" parent="qUHiKCZmazpI1G1EhrRY-134">
          <mxGeometry x="1050" y="580" width="120" height="60" as="geometry" />
        </mxCell>
        <mxCell id="HZxmBzxSfUTEYyeFS2q9-7" value="nyancat_mexican" style="rounded=1;whiteSpace=wrap;html=1;" vertex="1" parent="qUHiKCZmazpI1G1EhrRY-134">
          <mxGeometry x="1050" y="740" width="120" height="60" as="geometry" />
        </mxCell>
        <mxCell id="HZxmBzxSfUTEYyeFS2q9-8" value="Popup" style="rounded=0;whiteSpace=wrap;html=1;" vertex="1" parent="qUHiKCZmazpI1G1EhrRY-134">
          <mxGeometry x="380" y="160" width="120" height="60" as="geometry" />
        </mxCell>
        <mxCell id="HZxmBzxSfUTEYyeFS2q9-9" value="Console" style="rounded=0;whiteSpace=wrap;html=1;" vertex="1" parent="qUHiKCZmazpI1G1EhrRY-134">
          <mxGeometry x="610" y="300" width="120" height="60" as="geometry" />
        </mxCell>
        <mxCell id="HZxmBzxSfUTEYyeFS2q9-10" value="Stack" style="rounded=0;whiteSpace=wrap;html=1;" vertex="1" parent="qUHiKCZmazpI1G1EhrRY-134">
          <mxGeometry x="470" y="300" width="120" height="60" as="geometry" />
        </mxCell>
        <mxCell id="HZxmBzxSfUTEYyeFS2q9-11" value="Code" style="rounded=0;whiteSpace=wrap;html=1;" vertex="1" parent="qUHiKCZmazpI1G1EhrRY-134">
          <mxGeometry x="330" y="300" width="120" height="60" as="geometry" />
        </mxCell>
        <mxCell id="HZxmBzxSfUTEYyeFS2q9-12" value="Grid" style="rounded=0;whiteSpace=wrap;html=1;" vertex="1" parent="qUHiKCZmazpI1G1EhrRY-134">
          <mxGeometry x="750" y="300" width="120" height="60" as="geometry" />
        </mxCell>
        <mxCell id="HZxmBzxSfUTEYyeFS2q9-28" style="edgeStyle=orthogonalEdgeStyle;rounded=0;orthogonalLoop=1;jettySize=auto;html=1;entryX=0.5;entryY=0;entryDx=0;entryDy=0;" edge="1" parent="qUHiKCZmazpI1G1EhrRY-134" source="HZxmBzxSfUTEYyeFS2q9-13" target="HZxmBzxSfUTEYyeFS2q9-14">
          <mxGeometry relative="1" as="geometry">
            <Array as="points">
              <mxPoint x="250" y="400" />
              <mxPoint x="120" y="400" />
            </Array>
          </mxGeometry>
        </mxCell>
        <mxCell id="HZxmBzxSfUTEYyeFS2q9-29" style="edgeStyle=orthogonalEdgeStyle;rounded=0;orthogonalLoop=1;jettySize=auto;html=1;entryX=0.5;entryY=0;entryDx=0;entryDy=0;" edge="1" parent="qUHiKCZmazpI1G1EhrRY-134" source="HZxmBzxSfUTEYyeFS2q9-13" target="HZxmBzxSfUTEYyeFS2q9-17">
          <mxGeometry relative="1" as="geometry" />
        </mxCell>
        <mxCell id="HZxmBzxSfUTEYyeFS2q9-30" value="creates" style="edgeStyle=orthogonalEdgeStyle;rounded=0;orthogonalLoop=1;jettySize=auto;html=1;entryX=0.5;entryY=0;entryDx=0;entryDy=0;" edge="1" parent="qUHiKCZmazpI1G1EhrRY-134" source="HZxmBzxSfUTEYyeFS2q9-13" target="HZxmBzxSfUTEYyeFS2q9-16">
          <mxGeometry x="-0.8095" relative="1" as="geometry">
            <Array as="points">
              <mxPoint x="250" y="400" />
              <mxPoint x="380" y="400" />
            </Array>
            <mxPoint as="offset" />
          </mxGeometry>
        </mxCell>
        <mxCell id="HZxmBzxSfUTEYyeFS2q9-13" value="Settings" style="rounded=0;whiteSpace=wrap;html=1;" vertex="1" parent="qUHiKCZmazpI1G1EhrRY-134">
          <mxGeometry x="190" y="300" width="120" height="60" as="geometry" />
        </mxCell>
        <mxCell id="HZxmBzxSfUTEYyeFS2q9-31" value="creates" style="edgeStyle=orthogonalEdgeStyle;rounded=0;orthogonalLoop=1;jettySize=auto;html=1;entryX=0.5;entryY=0;entryDx=0;entryDy=0;" edge="1" parent="qUHiKCZmazpI1G1EhrRY-134" source="HZxmBzxSfUTEYyeFS2q9-14" target="HZxmBzxSfUTEYyeFS2q9-18">
          <mxGeometry relative="1" as="geometry" />
        </mxCell>
        <mxCell id="HZxmBzxSfUTEYyeFS2q9-14" value="Language" style="rounded=0;whiteSpace=wrap;html=1;" vertex="1" parent="qUHiKCZmazpI1G1EhrRY-134">
          <mxGeometry x="60" y="440" width="120" height="60" as="geometry" />
        </mxCell>
        <mxCell id="HZxmBzxSfUTEYyeFS2q9-15" value="Contact" style="rounded=0;whiteSpace=wrap;html=1;" vertex="1" parent="qUHiKCZmazpI1G1EhrRY-134">
          <mxGeometry x="700" y="160" width="120" height="60" as="geometry" />
        </mxCell>
        <mxCell id="HZxmBzxSfUTEYyeFS2q9-16" value="ColorPicker" style="rounded=0;whiteSpace=wrap;html=1;" vertex="1" parent="qUHiKCZmazpI1G1EhrRY-134">
          <mxGeometry x="320" y="440" width="120" height="60" as="geometry" />
        </mxCell>
        <mxCell id="HZxmBzxSfUTEYyeFS2q9-17" value="Range" style="rounded=0;whiteSpace=wrap;html=1;" vertex="1" parent="qUHiKCZmazpI1G1EhrRY-134">
          <mxGeometry x="190" y="440" width="120" height="60" as="geometry" />
        </mxCell>
        <mxCell id="HZxmBzxSfUTEYyeFS2q9-18" value="ExampleProgram" style="rounded=0;whiteSpace=wrap;html=1;" vertex="1" parent="qUHiKCZmazpI1G1EhrRY-134">
          <mxGeometry x="60" y="580" width="120" height="60" as="geometry" />
        </mxCell>
      </root>
    </mxGraphModel>
  </diagram>
</mxfile>
